<?xml version="1.0" encoding="UTF-8" standalone="no"?>
<!-- Created with Inkscape (http://www.inkscape.org/) -->

<svg
   width="5.2485962mm"
   height="4.8478241mm"
   viewBox="0 0 5.2485962 4.8478241"
   version="1.1"
   id="svg5"
   xml:space="preserve"
   inkscape:version="1.2.2 (b0a8486541, 2022-12-01)"
   sodipodi:docname="ui bitacora.svg"
   xmlns:inkscape="http://www.inkscape.org/namespaces/inkscape"
   xmlns:sodipodi="http://sodipodi.sourceforge.net/DTD/sodipodi-0.dtd"
   xmlns="http://www.w3.org/2000/svg"
   xmlns:svg="http://www.w3.org/2000/svg"><sodipodi:namedview
     id="namedview7"
     pagecolor="#ffffff"
     bordercolor="#000000"
     borderopacity="0.25"
     inkscape:showpageshadow="2"
     inkscape:pageopacity="0.0"
     inkscape:pagecheckerboard="0"
     inkscape:deskcolor="#d1d1d1"
     inkscape:document-units="mm"
     showgrid="false"
     inkscape:zoom="0.90509668"
     inkscape:cx="1181.0893"
     inkscape:cy="394.98543"
     inkscape:window-width="1870"
     inkscape:window-height="1011"
     inkscape:window-x="0"
     inkscape:window-y="0"
     inkscape:window-maximized="1"
     inkscape:current-layer="layer1"
     showguides="false" /><defs
     id="defs2" /><g
     inkscape:label="Capa 1"
     inkscape:groupmode="layer"
     id="layer1"
     transform="translate(-385.67533,-190.36523)"><rect
       style="opacity:1;fill:#ffffff;fill-opacity:1;stroke:none;stroke-width:0.2;stroke-dasharray:none"
       id="rect19714"
       width="447.21957"
       height="245.74417"
       x="215.27271"
       y="-15.612021"
       ry="3.9147301" /><g
       aria-label="🜛 "
       id="text17984-7"
       style="font-style:italic;font-weight:bold;font-size:6.46378px;font-family:'Zen Dots';-inkscape-font-specification:'Zen Dots Bold Italic';fill:#1a1a1a;stroke-width:0.889067"
       transform="translate(1.3635715,1.3920339)"><path
         d="m 385.21022,193.82104 q -0.24562,0 -0.45246,-0.11635 -0.20038,-0.12281 -0.32319,-0.32319 -0.12281,-0.20684 -0.12281,-0.45893 0,-0.23916 0.12281,-0.43954 0.12281,-0.20684 0.32319,-0.32965 0.20038,-0.12281 0.43954,-0.12927 0,-0.0646 0,-0.13574 0,-0.51711 0.26501,-0.93079 0.27148,-0.42014 0.71102,-0.63345 -0.12928,-0.18745 -0.12928,-0.45246 0,-0.24563 0.11635,-0.446 0.12281,-0.20684 0.32319,-0.32966 0.20684,-0.12281 0.45246,-0.12281 0.24563,0 0.446,0.12281 0.20684,0.12282 0.32966,0.32966 0.12281,0.20037 0.12281,0.446 0,0.25209 -0.13574,0.45893 0.446,0.21976 0.71101,0.64637 0.26502,0.42015 0.26502,0.9114 0,0.0582 0,0.13574 0.23916,0.006 0.43954,0.12927 0.20684,0.12281 0.32319,0.32965 0.12281,0.20038 0.12281,0.43954 0,0.25209 -0.12281,0.45893 -0.12282,0.20038 -0.32966,0.32319 -0.20037,0.11635 -0.446,0.11635 -0.25855,0 -0.46539,-0.12928 -0.20684,-0.12927 -0.31673,-0.34258 -0.43307,0.27794 -0.94371,0.27794 -0.5171,0 -0.94371,-0.27794 -0.10342,0.21977 -0.31672,0.34905 -0.20685,0.12281 -0.4654,0.12281 z m 1.72583,-3.63911 q 0.13574,0 0.21977,-0.097 0.084,-0.0969 0.084,-0.2133 0,-0.12281 -0.0905,-0.21331 -0.0905,-0.0905 -0.21331,-0.0905 -0.12281,0 -0.2133,0.0905 -0.0905,0.0905 -0.0905,0.21331 0,0.11635 0.084,0.2133 0.084,0.097 0.21977,0.097 z m 0,2.72125 q 0.28441,0 0.51064,-0.13574 0.2327,-0.13574 0.36844,-0.36197 0.13574,-0.2327 0.13574,-0.5171 0,-0.28441 -0.13574,-0.51064 -0.13574,-0.2327 -0.36844,-0.36844 -0.22623,-0.13574 -0.51064,-0.13574 -0.2844,0 -0.5171,0.13574 -0.22623,0.13574 -0.36197,0.36844 -0.13574,0.22623 -0.13574,0.51064 0,0.2844 0.13574,0.5171 0.13574,0.22623 0.36197,0.36197 0.2327,0.13574 0.5171,0.13574 z m 1.7323,-0.80797 q 0,-0.0129 0,-0.0388 0,0.0194 0,0.0388 z m -3.45813,1.13762 q 0.12281,0 0.21331,-0.0905 0.0905,-0.0905 0.0905,-0.21977 0,-0.11635 -0.0905,-0.20684 -0.0905,-0.0905 -0.21331,-0.0905 -0.12281,0 -0.2133,0.0905 -0.0905,0.0905 -0.0905,0.20684 0,0.12928 0.0905,0.21977 0.0905,0.0905 0.2133,0.0905 z m 3.45166,0 q 0.12281,0 0.21331,-0.0905 0.0905,-0.0905 0.0905,-0.21977 0,-0.11635 -0.0905,-0.20684 -0.0905,-0.0905 -0.21331,-0.0905 -0.12927,0 -0.21977,0.0905 -0.0905,0.0905 -0.0905,0.20684 0,0.12928 0.0905,0.21977 0.0905,0.0905 0.21977,0.0905 z"
         style="font-style:normal;font-weight:900;font-family:Roboto;-inkscape-font-specification:'Roboto Heavy';stroke-width:0.889063"
         id="path774" /></g></g></svg>
